# xmcd
#
# Track frame offsets:
#	150
#	14247
#	26888
#	41355
#	54229
#	68229
#	82326
#	95251
#	108871
#	122956
#	137216
#	151158
#	163795
#	177572
#	191108
#	205589
#	219566
#	234027
#	248065
#	260589
#	275717
#	291220
#	305433
#	320331
#	333889
#
# Disc length: 4636 seconds
#
# Revision: 2
# Processed by: cddbd v1.5.2PL0 Copyright (c) Steve Scherf et al.
# Submitted via: EasyCDDAExtractor 11.1.0.1
#
DISCID=71121a19
DTITLE=Various Artist - A Richer Tradition - Disc 1
DYEAR=2007
DGENRE=Blues
TTITLE0=Sylvester Weaver - Guitar Blues (1923)
TTITLE1=Ed Andrews - Time Ain't Gonna Make Me Stay (1924)
TTITLE2=Daddy Stovepipe - Sundown Blues (1924)
TTITLE3=Papa Charlie Jackson - Salt Lake City Blues (1924)
TTITLE4=South Street Trio - Whiskey And Gin Blues (1926)
TTITLE5=Richard "Rabbit" Brown - James Alley Blues(1927)
TTITLE6=Big Boy Cleveland - Goin' To Leave You Blues (1927)
TTITLE7=Long "Cleve" Reed And Papa Harvey Hull - Hey Lawdy Mama - The France B
TTITLE7=lues (1937)
TTITLE8=David Crockett And Stovepipe No. 1 - A Chicken Can Waltz The Gravy Aro
TTITLE8=und (1927)
TTITLE9=Andrew And Jim Baxter - Bamalong Blues (1927)
TTITLE10=Jaybird Coleman - Man Trouble Blues (1927)
TTITLE11="Blue Coat" Tom Nelson - Blue Coat Blues (1928)
TTITLE12=Ed Bell - Frisco Whistle Blues (1927)
TTITLE13=Emery Glen - Two Ways To Texas (1927)
TTITLE14=Lewis Black - Gravel Camp Blues (1927)
TTITLE15=Mooch Richardson - T&T Blues (1928)
TTITLE16=Tom Dickson - Death Bell Blues (1928)
TTITLE17=Pink Anderson And Simmie Dooley - C.C. and O Blues (1928)
TTITLE18=George "Bullet" Williams - Middlin' Blues (1928)
TTITLE19=Lottie Kimbrough - Rolling Log Blues (1928)
TTITLE20=Carlie Kyle - Kyle's Worried Blues (1928)
TTITLE21=William Harris - Bull Frog Blues (1928)
TTITLE22=Elizabeth Johnson - Sobbin' Woman Blues (1928)
TTITLE23=Alec Johnson - Miss Meal Cramp Blues (1928)
TTITLE24=Tarter And Gay - Unknown Blues (1928)
EXTD=
EXTT0=
EXTT1=
EXTT2=
EXTT3=
EXTT4=
EXTT5=
EXTT6=
EXTT7=
EXTT8=
EXTT9=
EXTT10=
EXTT11=
EXTT12=
EXTT13=
EXTT14=
EXTT15=
EXTT16=
EXTT17=
EXTT18=
EXTT19=
EXTT20=
EXTT21=
EXTT22=
EXTT23=
EXTT24=
PLAYORDER=
